<?xml version="1.0" encoding="UTF-8"?>
<svg id="Layer_1" xmlns="http://www.w3.org/2000/svg" version="1.1" viewBox="0 0 124 47.6">
  <!-- Generator: Adobe Illustrator 29.8.2, SVG Export Plug-In . SVG Version: 2.1.1 Build 3)  -->
  <g id="Airtel_a_reason_to_imagine">
    <g id="Group_20216">
      <g id="Group_20215">
        <g id="Group_20214">
          <path id="Path_16342" d="M61.3,2c-1.9,0-3.5,1.6-3.5,3.5,0,1.9,1.4,3.5,3.3,3.6,1.9,0,3.5-1.4,3.6-3.3,0,0,0-.1,0-.2,0-1.9-1.5-3.5-3.4-3.6" fill="#ec2027"/>
          <path id="Path_16343" d="M58.9,33.1h5.4V10.9l-5.4.9v21.3Z" fill="#ec2027"/>
          <path id="Path_16344" d="M49.3,28.8c-.8.5-1.8.8-2.8.7-2.2,0-3.2-1.7-3.1-3.7,0-1.9,1.5-3.5,3.4-3.5.1,0,.3,0,.4,0h2.2v6.5ZM47,10.5c-2.6,0-5.1.7-7.3,2l-.6.3,1.4,3.3.8-.4c1.6-.8,3.3-1.2,5.1-1.2,2,0,2.8,1,2.8,2.9v1.1h-3.2c-5.2,0-8.4,2.8-8.5,7.2,0,4.3,3.6,7.8,7.9,7.7,0,0,0,0,.1,0,3.4.1,6.7-1.1,9.1-3.5v-11.8c0-5.8-4-7.7-7.8-7.7" fill="#ec2027"/>
          <path id="Path_16345" d="M102.9,14.8c2.4,0,2.8,2.7,2.8,4.4h-5.9c.1-2.2,1-4.4,3.1-4.4M104.1,29.5c-1.2,0-2.3-.4-3.1-1.2-1-1.1-1.4-3.3-1.3-5.7h11.7v-.6c-.1-7.9-2.7-11.4-8.4-11.4s-8.9,6-8.9,11.7c0,3.6,1.3,7.2,3.7,9.2,1.7,1.3,3.7,2,5.9,1.9,1.3,0,2.6-.2,3.8-.6,1.5-.5,2.8-1.2,4.1-2l-1.5-3.2c-1.7,1.3-3.8,2-5.9,2" fill="#ec2027"/>
          <path id="Path_16346" d="M68.6,14.9v18.2h5.5V15.9c1-.9,2.3-1.4,3.7-1.4.7,0,1.5,0,2.2.2l1.5-3.5c-1.2-.5-2.4-.7-3.6-.7-3.6,0-7,1.6-9.3,4.3" fill="#ec2027"/>
          <path id="Path_16347" d="M122.8,29.6c-2.2-.2-2.7-1.2-2.7-2.9V4.8l-5.4,1v20.6c0,4.9,2.6,7,6.9,7,.7,0,1.4-.1,2.1-.2v-3.5c-.3,0-.6,0-.8,0" fill="#ec2027"/>
          <path id="Path_16348" d="M88.5,4.8l-5.5.9v20.7c0,4.6,2.6,6.9,7.1,6.9.7,0,1.4,0,2-.2v-3.4h-.8c-2.3,0-2.8-1.4-2.8-2.9v-11.7h3.6v-4.1h-3.6v-6.2Z" fill="#ec2027"/>
        </g>
        <path id="Path_16349" d="M12.4,33c1.6-.6,3.2-1.4,4.6-2.4l.4-.2c1.5-1,3-2.1,4.3-3.3,2.9-2.4,5.1-5.5,6.3-9,.7-2.1.9-4.4.3-6.6-.6-1.8-1.7-3.4-3.3-4.5-1.8-1.2-3.9-1.9-6-1.8-3.5,0-7.3,1.4-11.3,4h-.1c0,0-.4.3-.4.3-.1,0-.2.1-.3.2-.8.6-1.6,1.2-2.4,1.8-1.7,1.6-3.6,4.4-3.5,6.8,0,.9.5,1.8,1.2,2.4.7.5,1.6.8,2.6.8,2.1-.2,4.1-.9,5.9-2.1,0,0,.2-.1.3-.2.3-.2.5-.4.8-.5l.3-.2c2.2-1.6,4.5-2.9,7.1-3.9.6-.2,1.2-.3,1.8-.3.3,0,.5,0,.8,0,.7.2,1.4.6,1.7,1.3.6,1.6.4,3.4-.4,4.9-1.4,2.7-3.3,5.1-5.6,7-1.1,1-2.4,1.9-3.7,2.6h0c-.6.4-1.1.6-1.7.9h0c-.2.1-.3.2-.5.2-2.6.7-1-1.6-1-1.6.6-.6,1.1-1.2,1.8-1.8.4-.3.7-.7,1.1-1h0c.6-.6,1-1.3,1-2-.2-1.2-1.2-2-2.4-2h0c-1,0-2,.5-2.8,1.2-.7.6-1.3,1.3-1.8,2.1-.7,1.1-2.1,3.9-.7,6.1.6.9,1.7,1.4,2.8,1.3,1.1,0,2.1-.3,3.1-.6" fill="#ec2027"/>
      </g>
    </g>
  </g>
</svg>